<?xml version="1.0" encoding="utf-8"?>
<!-- Generator: Adobe Illustrator 25.2.1, SVG Export Plug-In . SVG Version: 6.00 Build 0)  -->
<svg version="1.1"
	 id="svg3409" inkscape:version="0.91 r13725" xmlns:cc="http://creativecommons.org/ns#" xmlns:dc="http://purl.org/dc/elements/1.1/" xmlns:inkscape="http://www.inkscape.org/namespaces/inkscape" xmlns:rdf="http://www.w3.org/1999/02/22-rdf-syntax-ns#" xmlns:sodipodi="http://sodipodi.sourceforge.net/DTD/sodipodi-0.dtd" xmlns:svg="http://www.w3.org/2000/svg"
	 xmlns="http://www.w3.org/2000/svg" xmlns:xlink="http://www.w3.org/1999/xlink" x="0px" y="0px" viewBox="0 0 535 76"
	 style="enable-background:new 0 0 535 76;" xml:space="preserve">
<style type="text/css">
	.st0{fill-rule:evenodd;clip-rule:evenodd;fill:#E21C2A;}
	.st1{fill-rule:evenodd;clip-rule:evenodd;fill:#FF0000;}
	.st2{fill:none;}
</style>
<g id="g3495" transform="translate(5.1290079,126.75978)">
	<g id="g3497">
		<path id="path3499" inkscape:connector-curvature="0" class="st0" d="M184-60.5l-18-27l8.5-0.1c3.9,0,5.1-4,5.1-6.9
			c0-3-0.1-6.4-3.7-6.4l-52.9,0.1l-0.2,40h-17l-0.1-54.4l69.3-0.1c12.8,0,21,7.4,21.1,19.5c0.1,10.5-2.9,14.2-6.3,15.3l4.9,7.6h7.1
			l0.1-42.3l16.7-0.2l0.2,54.5L184-60.5L184-60.5z"/>
		<path id="path3501" inkscape:connector-curvature="0" class="st0" d="M431.8-60.6V-115h16l58.7,37.4v-37.5l15.9-0.1v54.7
			l-15.9,0.1l-59-37.5l0.1,37.3L431.8-60.6L431.8-60.6z"/>
		<path id="path3503" inkscape:connector-curvature="0" class="st0" d="M251-80.6c-9.4,0-15.4-4.5-18.1-10.2c-1-2.2-1.6-4.6-1.6-7
			s0.5-4.8,1.5-7c2.6-5.8,8.6-10.2,18-10.3l54.4-0.1h10.3h13.2h17.9l54.3-0.1c5,0,9.7,1.7,13.1,4.8c3.1,2.9,5.1,6.9,5.2,11.9
			l0.1,21.1v0.1c-0.2,4.9-1.8,8.8-4.8,11.7c-3,2.8-7.3,4.5-13,5h-0.3l-56.8,0.1h-0.2c-5.3-0.3-9-1.8-12.1-5.7
			c-1.2-1.8-2-3.6-2.4-5.9c-0.3-1.5-0.6-3-0.5-4.7V-95l15.8-0.1v17.3c0,0.7,0,1.6,0,2.1c0.1,0.4,1.1,1,1.3,0.9l54.3-0.1
			c0.8,0,1.5-0.3,2-0.8s0.8-1.2,0.8-1.9l-0.1-20.6c0-0.7-0.3-1.4-0.9-1.9c-0.5-0.5-1.3-0.8-2.1-0.8l-51.1,0.1l0,0h-2.8h-5.1l0,0
			h-18.2h-7.8H305l-54.4,0.1c-1.8,0-2.8,0.7-3.3,1.6l0,0c-0.2,0.4-0.2,0.8-0.2,1.2c0,0.4,0.1,0.8,0.3,1.2c0.4,0.9,1.5,1.7,3.3,1.7
			h11.2h7h2.8l0,0h29.6c9.4,0,15.4,4.5,18.1,10.2c1,2.2,1.6,4.6,1.6,7s-0.5,4.8-1.5,7c-2.6,5.8-8.6,10.2-18,10.3l-70.4-0.1v-14.7
			l70.2,0.5c1.8,0,2.8-0.7,3.3-1.6l0,0c0.2-0.4,0.2-0.8,0.2-1.2c0-0.4-0.1-0.8-0.3-1.2c-0.4-0.9-1.5-1.7-3.3-1.7h-39.4L251-80.6
			L251-80.6z"/>
		<path id="path3505" inkscape:connector-curvature="0" class="st0" d="M93-100.5H19.7v8.6L83-92l0.1,14.4l-63.3,0.1l-0.1,17.1h-17
			l-0.1-54.7H93V-100.5L93-100.5z"/>
		<path id="path3507" inkscape:connector-curvature="0" class="st1" d="M35.7-100.5v8.6"/>
		<path id="path3509" inkscape:connector-curvature="0" class="st2" d="M35.7-77.4v16.8l0,0"/>
		<path id="path3511" inkscape:connector-curvature="0" class="st2" d="M19-115.1l90.3,0.1L19-115.1z"/>
	</g>
</g>
</svg>
